<svg width="218" height="13" viewBox="0 0 218 13" fill="none" xmlns="http://www.w3.org/2000/svg">
<path d="M3.8528 2.1376H0.9408V4.1312L0.2352 4.0864V6.36L0.9408 6.304V10H3.8528V6.304L4.816 6.36V4.0864L3.8528 4.1312V2.1376ZM5.62931 10H8.51891V6.9312C8.51891 6.5616 8.61971 6.2256 9.06771 6.2256C9.48211 6.2256 9.52691 6.6176 9.52691 6.9312V10H12.3493V6.3488C12.3493 5.0384 11.8229 3.9184 10.3445 3.9184C9.51571 3.9184 8.96691 4.4336 8.42931 5.072H8.38451L8.51891 3.4256V0.9168H5.62931V10ZM13.875 10H16.7646V4.0528H13.875V10ZM15.3198 0.827199C14.4126 0.827199 13.7294 1.3536 13.7294 2.216C13.7294 3.1904 14.491 3.616 15.3198 3.616C16.1486 3.616 16.9102 3.1904 16.9102 2.216C16.9102 1.3536 16.227 0.827199 15.3198 0.827199ZM17.8353 9.4736C18.6977 9.8432 19.6161 10.1344 20.5569 10.1344C21.9009 10.1344 23.4353 9.496 23.4353 7.9504C23.4353 6.752 22.5953 6.3936 21.5649 6.2256C21.1617 6.1584 20.8481 6.136 20.8481 5.8448C20.8481 5.632 21.0833 5.576 21.2625 5.576C21.7329 5.576 22.2257 5.8 22.5953 6.0688L23.3009 4.4224C22.6513 4.064 21.7329 3.9184 20.9937 3.9184C19.7169 3.9184 18.2161 4.512 18.2161 6.0016C18.2161 7.1216 19.1121 7.5136 20.0753 7.648C20.3105 7.6816 20.6577 7.6928 20.6577 8.0176C20.6577 8.2416 20.4225 8.3424 20.2321 8.3424C19.7393 8.3424 19.1569 8.04 18.7537 7.7936L18.5745 7.6816L17.8353 9.4736ZM32.8793 6.1808C33.3161 6.1808 33.6297 6.584 33.6297 6.9984C33.6297 7.4016 33.3273 7.872 32.8793 7.872C32.3977 7.872 32.1401 7.4688 32.1401 7.0208C32.1401 6.584 32.3977 6.1808 32.8793 6.1808ZM32.1401 4.0528H29.3849V12.4528H32.2745V10.1344L32.1401 9.1824H32.2185C32.5433 9.7648 33.3273 10.1344 33.9769 10.1344C35.6009 10.1344 36.4745 8.376 36.4745 6.976C36.4745 5.4864 35.6681 3.9184 33.9993 3.9184C33.2489 3.9184 32.4649 4.3104 32.1401 4.9936H32.0505L32.1401 4.0528ZM42.5093 3.9184C41.5349 3.896 41.0085 4.064 40.4933 4.848H40.4261L40.4933 4.0528H37.6037V10H40.4933V7.7152C40.4933 6.976 40.8741 6.528 41.6245 6.528C41.9941 6.528 42.2069 6.6736 42.5093 6.8528V3.9184ZM46.8226 3.9184C44.8626 3.9184 43.2162 5.016 43.2162 7.0992C43.2162 9.0704 44.9634 10.1344 46.8226 10.1344C48.6818 10.1344 50.429 9.0704 50.429 7.0992C50.429 5.016 48.7826 3.9184 46.8226 3.9184ZM46.8226 6.1808C47.3042 6.1808 47.629 6.5728 47.629 7.0544C47.629 7.5248 47.2706 7.872 46.8226 7.872C46.3746 7.872 46.0162 7.5248 46.0162 7.0544C46.0162 6.5728 46.341 6.1808 46.8226 6.1808ZM56.2628 4.2208C55.6804 4.0304 55.0532 3.9184 54.4484 3.9184C52.6676 3.9184 51.3796 5.296 51.3796 7.0544C51.3796 9.048 52.7572 10.1344 54.6836 10.1344C55.1876 10.1344 55.6916 10 56.1396 9.8544L56.2628 7.4128C55.9268 7.648 55.5908 7.872 55.1428 7.872C54.6724 7.872 54.2916 7.4912 54.2916 7.0208C54.2916 6.4832 54.6724 6.136 55.1988 6.136C55.6132 6.136 55.9604 6.3712 56.2628 6.6288V4.2208ZM64.4575 7.5136C64.6031 5.2848 62.9343 3.9184 60.8175 3.9184C58.9247 3.9184 57.4015 5.1504 57.4015 7.1216C57.4015 9.1712 59.1151 10.1344 60.9855 10.1344C62.3519 10.1344 63.9535 9.4736 64.3343 8.04H61.5231C61.4671 8.32 61.2431 8.5328 60.9407 8.5328C60.3359 8.5328 60.2575 7.9952 60.2575 7.5136H64.4575ZM60.2575 6.2816C60.2575 5.8672 60.4703 5.5088 60.9071 5.5088C61.3215 5.5088 61.6127 5.8784 61.6127 6.2816H60.2575ZM65.1658 9.4736C66.0282 9.8432 66.9466 10.1344 67.8874 10.1344C69.2314 10.1344 70.7658 9.496 70.7658 7.9504C70.7658 6.752 69.9258 6.3936 68.8954 6.2256C68.4922 6.1584 68.1786 6.136 68.1786 5.8448C68.1786 5.632 68.4138 5.576 68.593 5.576C69.0634 5.576 69.5562 5.8 69.9258 6.0688L70.6314 4.4224C69.9818 4.064 69.0634 3.9184 68.3242 3.9184C67.0474 3.9184 65.5466 4.512 65.5466 6.0016C65.5466 7.1216 66.4426 7.5136 67.4058 7.648C67.641 7.6816 67.9882 7.6928 67.9882 8.0176C67.9882 8.2416 67.753 8.3424 67.5626 8.3424C67.0698 8.3424 66.4874 8.04 66.0842 7.7936L65.905 7.6816L65.1658 9.4736ZM71.3617 9.4736C72.2241 9.8432 73.1425 10.1344 74.0833 10.1344C75.4273 10.1344 76.9617 9.496 76.9617 7.9504C76.9617 6.752 76.1217 6.3936 75.0913 6.2256C74.6881 6.1584 74.3745 6.136 74.3745 5.8448C74.3745 5.632 74.6097 5.576 74.7889 5.576C75.2593 5.576 75.7521 5.8 76.1217 6.0688L76.8273 4.4224C76.1777 4.064 75.2593 3.9184 74.5201 3.9184C73.2433 3.9184 71.7425 4.512 71.7425 6.0016C71.7425 7.1216 72.6385 7.5136 73.6017 7.648C73.8369 7.6816 74.1841 7.6928 74.1841 8.0176C74.1841 8.2416 73.9489 8.3424 73.7585 8.3424C73.2657 8.3424 72.6833 8.04 72.2801 7.7936L72.1009 7.6816L71.3617 9.4736ZM85.7001 4.0528H82.9673V10H85.7673V7.0544C85.7673 6.7072 85.7673 6.2592 86.1817 6.2592C86.6073 6.2592 86.6073 6.7072 86.6073 7.0544V10H89.4073V7.0544C89.4073 6.7072 89.4073 6.2592 89.8217 6.2592C90.2473 6.2592 90.2473 6.7072 90.2473 7.0544V10H93.0473V6.304C93.0473 5.016 92.4201 3.9184 90.9977 3.9184C90.0793 3.9184 89.5305 4.3552 89.1945 5.184H89.1273C88.8697 4.3776 88.2761 3.9184 87.4249 3.9184C86.6633 3.9184 85.9353 4.3776 85.7001 5.1056H85.6105L85.7001 4.0528ZM97.11 6.9984C97.11 6.5616 97.4012 6.1808 97.8604 6.1808C98.3196 6.1808 98.6332 6.5168 98.6332 6.976C98.6332 7.4352 98.4092 7.872 97.8604 7.872C97.334 7.872 97.11 7.4688 97.11 6.9984ZM98.5436 10H101.377V4.0528H98.5436L98.6332 4.7584H98.566C98.1404 4.176 97.5468 3.9184 96.83 3.9184C95.15 3.9184 94.2428 5.5536 94.2428 7.0544C94.2428 8.4992 95.1388 10.1344 96.7516 10.1344C97.5692 10.1344 98.0396 9.776 98.566 9.216H98.6332L98.5436 10ZM101.923 4.0528L104.465 9.4064L102.931 12.4528H105.977L109.785 4.0528H106.75L106.089 6.3824L105.944 7.2896H105.865L105.697 6.3824L105.037 4.0528H101.923ZM118.501 2.1376H115.589V4.1312L114.884 4.0864V6.36L115.589 6.304V10H118.501V6.304L119.465 6.36V4.0864L118.501 4.1312V2.1376ZM122.944 6.9984C122.944 6.5616 123.235 6.1808 123.694 6.1808C124.153 6.1808 124.467 6.5168 124.467 6.976C124.467 7.4352 124.243 7.872 123.694 7.872C123.168 7.872 122.944 7.4688 122.944 6.9984ZM124.377 10H127.211V4.0528H124.377L124.467 4.7584H124.4C123.974 4.176 123.38 3.9184 122.664 3.9184C120.984 3.9184 120.076 5.5536 120.076 7.0544C120.076 8.4992 120.972 10.1344 122.585 10.1344C123.403 10.1344 123.873 9.776 124.4 9.216H124.467L124.377 10ZM128.585 10H131.475V7.816H131.542L132.752 10H136.156L133.86 6.9648L136.044 4.0528H132.673L131.777 5.7552L131.542 6.2592H131.475V0.9168H128.585V10ZM143.976 7.5136C144.122 5.2848 142.453 3.9184 140.336 3.9184C138.443 3.9184 136.92 5.1504 136.92 7.1216C136.92 9.1712 138.634 10.1344 140.504 10.1344C141.871 10.1344 143.472 9.4736 143.853 8.04H141.042C140.986 8.32 140.762 8.5328 140.459 8.5328C139.855 8.5328 139.776 7.9952 139.776 7.5136H143.976ZM139.776 6.2816C139.776 5.8672 139.989 5.5088 140.426 5.5088C140.84 5.5088 141.131 5.8784 141.131 6.2816H139.776ZM149.568 9.4736C150.43 9.8432 151.349 10.1344 152.289 10.1344C153.633 10.1344 155.168 9.496 155.168 7.9504C155.168 6.752 154.328 6.3936 153.297 6.2256C152.894 6.1584 152.581 6.136 152.581 5.8448C152.581 5.632 152.816 5.576 152.995 5.576C153.465 5.576 153.958 5.8 154.328 6.0688L155.033 4.4224C154.384 4.064 153.465 3.9184 152.726 3.9184C151.449 3.9184 149.949 4.512 149.949 6.0016C149.949 7.1216 150.845 7.5136 151.808 7.648C152.043 7.6816 152.39 7.6928 152.39 8.0176C152.39 8.2416 152.155 8.3424 151.965 8.3424C151.472 8.3424 150.889 8.04 150.486 7.7936L150.307 7.6816L149.568 9.4736ZM159.661 3.9184C157.701 3.9184 156.055 5.016 156.055 7.0992C156.055 9.0704 157.802 10.1344 159.661 10.1344C161.521 10.1344 163.268 9.0704 163.268 7.0992C163.268 5.016 161.621 3.9184 159.661 3.9184ZM159.661 6.1808C160.143 6.1808 160.468 6.5728 160.468 7.0544C160.468 7.5248 160.109 7.872 159.661 7.872C159.213 7.872 158.855 7.5248 158.855 7.0544C158.855 6.5728 159.18 6.1808 159.661 6.1808ZM167.242 4.0528H164.509V10H167.309V7.0544C167.309 6.7072 167.309 6.2592 167.724 6.2592C168.149 6.2592 168.149 6.7072 168.149 7.0544V10H170.949V7.0544C170.949 6.7072 170.949 6.2592 171.364 6.2592C171.789 6.2592 171.789 6.7072 171.789 7.0544V10H174.589V6.304C174.589 5.016 173.962 3.9184 172.54 3.9184C171.621 3.9184 171.073 4.3552 170.737 5.184H170.669C170.412 4.3776 169.818 3.9184 168.967 3.9184C168.205 3.9184 167.477 4.3776 167.242 5.1056H167.153L167.242 4.0528ZM182.863 7.5136C183.009 5.2848 181.34 3.9184 179.223 3.9184C177.331 3.9184 175.807 5.1504 175.807 7.1216C175.807 9.1712 177.521 10.1344 179.391 10.1344C180.758 10.1344 182.359 9.4736 182.74 8.04H179.929C179.873 8.32 179.649 8.5328 179.347 8.5328C178.742 8.5328 178.663 7.9952 178.663 7.5136H182.863ZM178.663 6.2816C178.663 5.8672 178.876 5.5088 179.313 5.5088C179.727 5.5088 180.019 5.8784 180.019 6.2816H178.663ZM192.207 2.1376H189.295V4.1312L188.589 4.0864V6.36L189.295 6.304V10H192.207V6.304L193.17 6.36V4.0864L192.207 4.1312V2.1376ZM194.174 10H197.064V4.0528H194.174V10ZM195.619 0.827199C194.712 0.827199 194.028 1.3536 194.028 2.216C194.028 3.1904 194.79 3.616 195.619 3.616C196.448 3.616 197.209 3.1904 197.209 2.216C197.209 1.3536 196.526 0.827199 195.619 0.827199ZM201.393 4.0528H198.661V10H201.461V7.0544C201.461 6.7072 201.461 6.2592 201.875 6.2592C202.301 6.2592 202.301 6.7072 202.301 7.0544V10H205.101V7.0544C205.101 6.7072 205.101 6.2592 205.515 6.2592C205.941 6.2592 205.941 6.7072 205.941 7.0544V10H208.741V6.304C208.741 5.016 208.113 3.9184 206.691 3.9184C205.773 3.9184 205.224 4.3552 204.888 5.184H204.821C204.563 4.3776 203.969 3.9184 203.118 3.9184C202.357 3.9184 201.629 4.3776 201.393 5.1056H201.304L201.393 4.0528ZM217.015 7.5136C217.16 5.2848 215.491 3.9184 213.375 3.9184C211.482 3.9184 209.959 5.1504 209.959 7.1216C209.959 9.1712 211.672 10.1344 213.543 10.1344C214.909 10.1344 216.511 9.4736 216.891 8.04H214.08C214.024 8.32 213.8 8.5328 213.498 8.5328C212.893 8.5328 212.815 7.9952 212.815 7.5136H217.015ZM212.815 6.2816C212.815 5.8672 213.027 5.5088 213.464 5.5088C213.879 5.5088 214.17 5.8784 214.17 6.2816H212.815Z" fill="#CDCDCD"/>
</svg>
